<?xml version="1.0" encoding="UTF-8"?>
<svg viewBox="0 0 1360 767" version="1.1" xmlns="http://www.w3.org/2000/svg" xmlns:xlink="http://www.w3.org/1999/xlink">
    <defs></defs>
    <g id="Epics-&amp;-Stories" stroke="none" stroke-width="1" fill="none" fill-rule="evenodd">
        <g id="Incorrect-login-credentials" transform="translate(-6.000000, 0.000000)">
            <g id="background-pattern" transform="translate(6.000000, -4.000000)">
                <g id="Group-8" transform="translate(0.000000, 3.000000)" fill-opacity="0.361469656" fill="#FFFFFF">
                    <circle id="Oval-4" cx="13" cy="682" r="3"></circle>
                    <circle id="Oval-4-Copy" cx="3" cy="597" r="3"></circle>
                    <circle id="Oval-4-Copy-2" cx="73" cy="571" r="3"></circle>
                    <circle id="Oval-4-Copy-12" cx="88" cy="469" r="3"></circle>
                    <circle id="Oval-4-Copy-13" cx="125" cy="531" r="3"></circle>
                    <circle id="Oval-4-Copy-14" cx="170" cy="514" r="3"></circle>
                    <circle id="Oval-4-Copy-15" cx="61" cy="338" r="3"></circle>
                    <circle id="Oval-4-Copy-16" cx="46" cy="316" r="3"></circle>
                    <circle id="Oval-4-Copy-17" cx="78" cy="306" r="3"></circle>
                    <circle id="Oval-4-Copy-18" cx="157" cy="386" r="3"></circle>
                    <circle id="Oval-4-Copy-19" cx="179" cy="442" r="3"></circle>
                    <circle id="Oval-4-Copy-20" cx="204" cy="446" r="3"></circle>
                    <circle id="Oval-4-Copy-21" cx="205" cy="426" r="3"></circle>
                    <circle id="Oval-4-Copy-22" cx="291" cy="439" r="3"></circle>
                    <circle id="Oval-4-Copy-23" cx="290" cy="476" r="3"></circle>
                    <circle id="Oval-4-Copy-24" cx="303" cy="530" r="3"></circle>
                    <circle id="Oval-4-Copy-25" cx="324" cy="396" r="3"></circle>
                    <circle id="Oval-4-Copy-26" cx="257" cy="370" r="3"></circle>
                    <circle id="Oval-4-Copy-27" cx="343" cy="436" r="3"></circle>
                    <circle id="Oval-4-Copy-28" cx="377" cy="396" r="3"></circle>
                    <circle id="Oval-4-Copy-29" cx="387" cy="366" r="3"></circle>
                    <circle id="Oval-4-Copy-30" cx="423" cy="334" r="3"></circle>
                    <circle id="Oval-4-Copy-31" cx="352" cy="260" r="3"></circle>
                    <circle id="Oval-4-Copy-32" cx="350" cy="301" r="3"></circle>
                    <circle id="Oval-4-Copy-33" cx="386" cy="481" r="3"></circle>
                    <circle id="Oval-4-Copy-34" cx="454" cy="471" r="3"></circle>
                    <circle id="Oval-4-Copy-35" cx="417" cy="542" r="3"></circle>
                    <circle id="Oval-4-Copy-36" cx="419" cy="616" r="3"></circle>
                    <circle id="Oval-4-Copy-37" cx="425" cy="640" r="3"></circle>
                    <circle id="Oval-4-Copy-38" cx="392" cy="638" r="3"></circle>
                    <circle id="Oval-4-Copy-39" cx="472" cy="566" r="3"></circle>
                    <circle id="Oval-4-Copy-40" cx="495" cy="527" r="3"></circle>
                    <circle id="Oval-4-Copy-41" cx="545" cy="558" r="3"></circle>
                    <circle id="Oval-4-Copy-42" cx="568" cy="658" r="3"></circle>
                    <circle id="Oval-4-Copy-43" cx="585" cy="669" r="3"></circle>
                    <circle id="Oval-4-Copy-44" cx="547" cy="687" r="3"></circle>
                    <circle id="Oval-4-Copy-45" cx="594" cy="734" r="3"></circle>
                    <circle id="Oval-4-Copy-46" cx="608" cy="553" r="3"></circle>
                    <circle id="Oval-4-Copy-47" cx="580" cy="499" r="3"></circle>
                    <circle id="Oval-4-Copy-48" cx="644" cy="533" r="3"></circle>
                    <circle id="Oval-4-Copy-49" cx="622" cy="600" r="3"></circle>
                    <circle id="Oval-4-Copy-50" cx="676" cy="549" r="3"></circle>
                    <circle id="Oval-4-Copy-51" cx="685" cy="513" r="3"></circle>
                    <circle id="Oval-4-Copy-52" cx="698" cy="677" r="3"></circle>
                    <circle id="Oval-4-Copy-53" cx="750" cy="722" r="3"></circle>
                    <circle id="Oval-4-Copy-54" cx="784" cy="732" r="3"></circle>
                    <circle id="Oval-4-Copy-55" cx="763" cy="601" r="3"></circle>
                    <circle id="Oval-4-Copy-56" cx="720" cy="601" r="3"></circle>
                    <circle id="Oval-4-Copy-57" cx="767" cy="531" r="3"></circle>
                    <circle id="Oval-4-Copy-58" cx="807" cy="499" r="3"></circle>
                    <circle id="Oval-4-Copy-59" cx="853" cy="573" r="3"></circle>
                    <circle id="Oval-4-Copy-60" cx="890" cy="526" r="3"></circle>
                    <circle id="Oval-4-Copy-61" cx="938" cy="508" r="3"></circle>
                    <circle id="Oval-4-Copy-62" cx="972" cy="367" r="3"></circle>
                    <circle id="Oval-4-Copy-63" cx="975" cy="342" r="3"></circle>
                    <circle id="Oval-4-Copy-64" cx="1016" cy="323" r="3"></circle>
                    <circle id="Oval-4-Copy-65" cx="1040" cy="384" r="3"></circle>
                    <circle id="Oval-4-Copy-66" cx="602" cy="160" r="3"></circle>
                    <circle id="Oval-4-Copy-67" cx="606" cy="195" r="3"></circle>
                    <circle id="Oval-4-Copy-68" cx="633" cy="220" r="3"></circle>
                    <circle id="Oval-4-Copy-69" cx="644" cy="116" r="3"></circle>
                    <circle id="Oval-4-Copy-70" cx="729" cy="163" r="3"></circle>
                    <circle id="Oval-4-Copy-71" cx="747" cy="34" r="3"></circle>
                    <circle id="Oval-4-Copy-72" cx="818" cy="60" r="3"></circle>
                    <circle id="Oval-4-Copy-73" cx="806" cy="81" r="3"></circle>
                    <circle id="Oval-4-Copy-74" cx="812" cy="146" r="3"></circle>
                    <circle id="Oval-4-Copy-75" cx="935" cy="140" r="3"></circle>
                    <circle id="Oval-4-Copy-76" cx="898" cy="54" r="3"></circle>
                    <circle id="Oval-4-Copy-77" cx="984" cy="12" r="3"></circle>
                    <circle id="Oval-4-Copy-78" cx="1042" cy="51" r="3"></circle>
                    <circle id="Oval-4-Copy-79" cx="1030" cy="152" r="3"></circle>
                    <circle id="Oval-4-Copy-80" cx="1010" cy="135" r="3"></circle>
                    <circle id="Oval-4-Copy-81" cx="1005" cy="164" r="3"></circle>
                    <circle id="Oval-4-Copy-82" cx="1079" cy="216" r="3"></circle>
                    <circle id="Oval-4-Copy-83" cx="1065" cy="152" r="3"></circle>
                    <circle id="Oval-4-Copy-84" cx="1095" cy="154" r="3"></circle>
                    <circle id="Oval-4-Copy-85" cx="1151" cy="170" r="3"></circle>
                    <circle id="Oval-4-Copy-86" cx="1080" cy="113" r="3"></circle>
                    <circle id="Oval-4-Copy-87" cx="1100" cy="46" r="3"></circle>
                    <circle id="Oval-4-Copy-3" cx="76" cy="645" r="3"></circle>
                    <circle id="Oval-4-Copy-4" cx="117" cy="677" r="3"></circle>
                    <circle id="Oval-4-Copy-5" cx="101" cy="726" r="3"></circle>
                    <circle id="Oval-4-Copy-6" cx="130" cy="763" r="3"></circle>
                    <circle id="Oval-4-Copy-7" cx="163" cy="571" r="3"></circle>
                    <circle id="Oval-4-Copy-8" cx="194" cy="585" r="3"></circle>
                    <circle id="Oval-4-Copy-9" cx="225" cy="627" r="3"></circle>
                    <circle id="Oval-4-Copy-10" cx="269" cy="552" r="3"></circle>
                    <circle id="Oval-4-Copy-11" cx="314" cy="559" r="3"></circle>
                    <circle id="Oval-4-Copy-88" cx="1161" cy="3" r="3"></circle>
                    <circle id="Oval-4-Copy-89" cx="1231" cy="77" r="3"></circle>
                    <circle id="Oval-4-Copy-90" cx="1230" cy="177" r="3"></circle>
                    <circle id="Oval-4-Copy-91" cx="1281" cy="104" r="3"></circle>
                    <circle id="Oval-4-Copy-92" cx="1330" cy="53" r="3"></circle>
                    <circle id="Oval-4-Copy-93" cx="1352" cy="32" r="3"></circle>
                </g>
                <g id="Group-7" transform="translate(2.000000, 0.000000)" stroke-opacity="0.247905344" stroke="#FFFFFF">
                    <polyline id="Path-129" points="125 762 99 727 115 680 39 766 10 686 112 681"></polyline>
                    <polyline id="Path-130" points="113 679 75 647 11 685 1 600 75 650 71 574 0 600 58 341 70 570 120 535 78 642 162 575 192 588 78 645"></polyline>
                    <polyline id="Path-132" points="88 473 123 533 160 572 168 519 126 532"></polyline>
                    <polyline id="Path-133" points="168 519 192 586 202 449 170 516"></polyline>
                    <polyline id="Path-135" points="171 517 287 479 415 546 453 472 385 484 341 439 290 477"></polyline>
                    <polyline id="Path-136" points="170 518 384 485 415 545 492 530 469 570 419 619 423 642"></polyline>
                    <polyline id="Path-138" points="170 518 300.660695 533.40309 416 547"></polyline>
                    <polyline id="Path-139" points="302 531 375 401 342 437 322 397 256 373 386 369 325 397 373 399"></polyline>
                    <polyline id="Path-141" points="349 307 384 369 420 338"></polyline>
                    <polyline id="Path-143" points="376 400 450 472 342 438"></polyline>
                    <polyline id="Path-145" points="580 504 605 555 494 530"></polyline>
                    <polyline id="Path-147" points="471 569 566 662 546 690"></polyline>
                    <path d="M568,662 L582,672" id="Path-149"></path>
                    <polyline id="Path-151" points="608 557 621 602 642 539 579 502"></polyline>
                    <polyline id="Path-153" points="624 603 717 604 748 724 762 603 696 679"></polyline>
                    <polyline id="Path-155" points="720 604 765 534 801 504 763 485 765 531 733 498 689 490 682 517 762 534"></polyline>
                    <polyline id="Path-157" points="645 537 717 603 675 553"></polyline>
                    <polyline id="Path-159" points="697 681 745 723 764 771"></polyline>
                    <path d="M869,478 L933,510" id="Path-162"></path>
                    <path d="M976,345 L1012,327" id="Path-164"></path>
                    <polyline id="Path-166" points="874 335 972 343 873 278"></polyline>
                    <polyline id="Path-168" points="603 165 633 225 727 166 738 233"></polyline>
                    <polyline id="Path-170" points="643 118 728 166 797 232"></polyline>
                    <polyline id="Path-172" points="746 38 811 148 806 88"></polyline>
                    <path d="M810,150 L843,231" id="Path-174"></path>
                    <polyline id="Path-176" points="860 228 1002 167 871 262"></polyline>
                    <polyline id="Path-178" points="811 148 982 15 1038 53 1038 3"></polyline>
                    <path d="M897,56 L1037,54" id="Path-180"></path>
                    <polyline id="Path-182" points="946 3 981 14 997 4"></polyline>
                    <path d="M1080,118 L1092,158" id="Path-184"></path>
                    <polygon id="Path-186" points="1100 48 1157 6 1229 81"></polygon>
                    <path d="M1229,83 L1228,178" id="Path-187"></path>
                    <polyline id="Path-189" points="1216 5 1229 77 1246 4 1348 33 1328 55"></polyline>
                    <path d="M1351,35 L1359,61" id="Path-191"></path>
                    <polygon id="Path-131" points="0 599 87 472 59 340"></polygon>
                    <polyline id="Path-134" points="156 390 202 449 290 443 287 477 206 452"></polyline>
                    <polyline id="Path-137" points="417 545 417 618 392 641"></polyline>
                    <path d="M321,399 L291,441" id="Path-140"></path>
                    <polyline id="Path-142" points="351 264 385 370 451 472 481 429"></polyline>
                    <polyline id="Path-144" points="454 474 493 529 578 501"></polyline>
                    <polyline id="Path-146" points="470 569 543.360406 561.33548 604 555 565 662"></polyline>
                    <path d="M568,663 L592,737" id="Path-148"></path>
                    <path d="M569,660 L619,603" id="Path-150"></path>
                    <polyline id="Path-152" points="621 603 696 680 644 539"></polyline>
                    <polyline id="Path-154" points="761 601 765 537 852 576 764 604"></polyline>
                    <polyline id="Path-156" points="643 535 682 517 673 495"></polyline>
                    <path d="M684,519 L719,603" id="Path-158"></path>
                    <path d="M749,723 L781,734" id="Path-160"></path>
                    <path d="M847,496 L887,528" id="Path-161"></path>
                    <polyline id="Path-163" points="875 384 974 344 970 369"></polyline>
                    <path d="M976,345 L1038,386" id="Path-165"></path>
                    <polyline id="Path-167" points="607 201 632 223 678 232"></polyline>
                    <path d="M642,121 L661,233" id="Path-169"></path>
                    <polyline id="Path-171" points="746 229 809 149 812 229"></polyline>
                    <polyline id="Path-173" points="816 64 810 149 897 56 920 1.8189894e-12"></polyline>
                    <polyline id="Path-175" points="812 149 1003 166 1075 218"></polyline>
                    <polyline id="Path-177" points="1009 139 1003 167 1026 156"></polyline>
                    <polyline id="Path-179" points="813 149 1039 54 1077 115 1098 48 1100 3 1043 50"></polyline>
                    <path d="M933,5 L933,140" id="Path-181"></path>
                    <path d="M1076,117 L1064,153" id="Path-183"></path>
                    <path d="M1078,115 L1149,172" id="Path-185"></path>
                    <path d="M1229,80 L1279,107" id="Path-188"></path>
                    <polyline id="Path-190" points="1315 4 1351 34 1357 4"></polyline>
                    <path d="M195,586 L265,556" id="Path-193"></path>
                    <polyline id="Path-195" points="46 319 59 340 77 309"></polyline>
                    <path d="M194,588 L310,562" id="Path-192"></path>
                    <path d="M193,589 L223,628" id="Path-194"></path>
                    <polyline id="Path-196" points="178 445 203 449 204 428"></polyline>
                </g>
            </g>
        </g>
    </g>
</svg>
